<svg width="463" height="457" viewBox="0 0 463 457" fill="none" xmlns="http://www.w3.org/2000/svg">
<path d="M283.641 222.744V170.641L241.795 254.538C241.59 255.154 240.564 255.769 239.949 255.769H214.718C214.103 255.769 212.872 255.154 212.667 254.538L168.154 168.385V260.487C168.154 261.308 167.128 262.333 165.897 262.333H138.821C137.385 262.333 136.769 261.308 136.769 260.487V100.077C136.769 99.2564 137.385 98.2307 138.821 98.2307H166.308C166.923 98.2307 168.154 98.8461 168.359 99.4615L227.231 219.667L283.231 99.4615C283.641 98.8461 284.667 98.2307 285.487 98.2307H312.564C314 98.2307 314.821 99.2564 314.821 100.077V222.744H283.641Z" fill="white"/>
<path d="M277.415 311.287V278.333H307.138C308 278.333 309.077 279.195 309.077 280.702V308.703C309.077 351.564 296.584 409.718 222.923 409.718C146.461 409.718 136.769 350.918 136.769 308.703V280.702C136.769 279.195 137.846 278.333 138.708 278.333H206.338V311.287H168.215C166.277 348.764 182 376.549 222.923 376.549C276.123 376.549 278.277 332.179 277.415 311.287Z" fill="white"/>
</svg>
