<svg width="463" height="457" viewBox="0 0 463 457" fill="none" xmlns="http://www.w3.org/2000/svg">
<path d="M283.641 197.744V145.641L241.795 229.538C241.59 230.154 240.564 230.769 239.949 230.769H214.718C214.103 230.769 212.872 230.154 212.667 229.538L168.154 143.385V235.487C168.154 236.308 167.128 237.333 165.897 237.333H138.821C137.385 237.333 136.769 236.308 136.769 235.487V75.0769C136.769 74.2564 137.385 73.2307 138.821 73.2307H166.308C166.923 73.2307 168.154 73.8461 168.359 74.4615L227.231 194.667L283.231 74.4615C283.641 73.8461 284.667 73.2307 285.487 73.2307H312.564C314 73.2307 314.821 74.2564 314.821 75.0769V197.744H283.641Z" fill="white"/>
<path d="M277.415 286.287V253.333H307.138C308 253.333 309.077 254.195 309.077 255.702V283.703C309.077 326.564 296.584 384.718 222.923 384.718C146.461 384.718 136.769 325.918 136.769 283.703V255.702C136.769 254.195 137.846 253.333 138.708 253.333H206.338V286.287H168.215C166.277 323.764 182 351.549 222.923 351.549C276.123 351.549 278.277 307.179 277.415 286.287Z" fill="white"/>
<rect x="13" y="11" width="436" height="436" rx="73" stroke="white" stroke-width="14"/>
</svg>
